<svg width="624" height="730" viewBox="0 0 624 730" fill="none" xmlns="http://www.w3.org/2000/svg">
<path d="M450.146 418.761C451.514 418.077 452.767 417.735 453.906 417.735C455.16 417.735 456.128 418.191 456.812 419.103C457.495 419.9 457.837 420.925 457.837 422.179C457.837 423.774 457.21 425.597 455.957 427.647C454.704 429.584 452.767 431.35 450.146 432.945C443.652 436.819 436.759 440.921 429.468 445.25C422.29 449.579 414.998 453.966 407.593 458.409C400.301 462.739 393.009 466.954 385.718 471.056C378.54 475.043 371.704 478.632 365.21 481.822C358.83 484.898 352.962 487.462 347.607 489.513C342.367 491.563 337.923 492.76 334.277 493.102C334.277 493.557 332.853 494.583 330.005 496.178C327.157 497.887 323.625 499.653 319.409 501.476C315.308 503.299 310.921 504.951 306.25 506.432C301.579 507.913 297.42 508.653 293.774 508.653C290.926 508.653 288.534 508.027 286.597 506.773C284.774 505.634 283.862 503.583 283.862 500.621C283.862 500.393 283.919 499.994 284.033 499.425C284.147 498.855 284.204 498.399 284.204 498.058L241.992 250.255C226.953 288.65 213.395 323.456 201.318 354.674C189.355 385.777 177.791 413.064 166.626 436.534C176.766 438.927 185.482 442.06 192.773 445.934C200.179 449.807 206.274 454.251 211.06 459.264C215.845 464.163 219.377 469.632 221.655 475.67C223.934 481.708 225.073 488.032 225.073 494.64C225.073 501.817 223.649 509.565 220.801 517.882C218.066 526.313 214.193 534.801 209.18 543.346C204.281 552.005 198.413 560.549 191.577 568.98C184.741 577.411 177.279 585.273 169.189 592.564C168.278 593.362 166.911 594.33 165.088 595.47C163.379 596.723 161.499 597.919 159.448 599.059C157.511 600.198 155.575 601.166 153.638 601.964C151.815 602.761 150.334 603.16 149.194 603.16C148.169 603.16 147.656 602.704 147.656 601.793C147.656 600.768 148.454 598.831 150.049 595.982C156.201 585.501 162.752 575.646 169.702 566.417C176.766 557.188 183.203 548.359 189.014 539.928C194.938 531.611 199.837 523.635 203.711 516.002C207.585 508.368 209.521 500.849 209.521 493.443C209.521 487.975 208.61 482.848 206.787 478.062C204.964 473.163 202.059 468.777 198.071 464.903C194.198 460.916 189.185 457.498 183.032 454.649C176.994 451.801 169.645 449.579 160.986 447.984C156.315 462.91 149.593 475.841 140.82 486.778C132.161 497.716 122.534 506.773 111.938 513.951C101.343 521.243 90.2913 526.655 78.7842 530.187C67.391 533.718 56.6243 535.484 46.4844 535.484C39.8763 535.484 33.7809 534.744 28.1982 533.263C22.5016 531.782 17.6025 529.56 13.501 526.598C9.28548 523.749 5.98145 520.16 3.58887 515.831C1.19629 511.616 0 506.66 0 500.963C0 496.064 1.36719 490.937 4.10156 485.582C6.83594 480.113 10.6527 474.758 15.5518 469.518C20.4508 464.277 26.3184 459.321 33.1543 454.649C39.9902 449.978 47.5098 445.877 55.7129 442.345C63.916 438.813 72.6888 436.021 82.0312 433.971C91.3737 431.806 101.001 430.724 110.913 430.724C115.698 430.724 120.256 430.838 124.585 431.065C128.914 431.293 133.073 431.578 137.061 431.92C143.555 418.932 150.049 405.26 156.543 390.904C163.037 376.549 169.474 362.079 175.854 347.496C182.235 332.913 188.501 318.443 194.653 304.088C200.92 289.732 207.015 276.061 212.939 263.072C218.978 249.97 224.845 237.893 230.542 226.842C236.239 215.676 241.707 206.049 246.948 197.96C252.189 189.871 257.202 183.548 261.987 178.99C266.886 174.319 271.501 171.983 275.83 171.983C278.337 171.983 280.444 172.496 282.153 173.521C283.862 174.433 285.173 175.686 286.084 177.281C287.109 178.762 287.793 180.528 288.135 182.579C288.59 184.63 288.818 186.681 288.818 188.731C288.818 190.554 288.704 192.377 288.477 194.2C288.249 195.909 288.021 197.504 287.793 198.985C287.565 200.353 287.337 201.549 287.109 202.574C286.882 203.486 286.768 203.998 286.768 204.112L330.176 459.264L422.803 225.475C424.512 221.373 426.562 217.044 428.955 212.486C431.462 207.815 434.196 203.543 437.158 199.669C440.12 195.681 443.311 192.377 446.729 189.757C450.146 187.136 453.735 185.826 457.495 185.826C461.369 185.826 464.445 186.168 466.724 186.852C469.116 187.421 470.939 188.162 472.192 189.073C473.56 189.985 474.471 191.067 474.927 192.32C475.496 193.46 475.895 194.599 476.123 195.738L343.506 473.619C352.279 470.885 360.994 467.524 369.653 463.536C378.312 459.435 387.028 454.991 395.801 450.206C404.574 445.421 413.46 440.351 422.461 434.996C431.462 429.641 440.69 424.229 450.146 418.761ZM130.396 445.25C130.396 444.794 130.168 444.566 129.712 444.566C121.281 444.566 112.736 445.478 104.077 447.301C95.4183 449.124 87.0443 451.573 78.9551 454.649C70.8659 457.726 63.2324 461.314 56.0547 465.416C48.9909 469.404 42.7816 473.619 37.4268 478.062C32.0719 482.506 27.8564 486.949 24.7803 491.393C21.7041 495.95 20.166 500.222 20.166 504.21C20.166 510.704 22.2168 515.489 26.3184 518.565C30.4199 521.756 35.7747 523.351 42.3828 523.351C49.3327 523.351 57.137 521.642 65.7959 518.224C74.4548 514.806 82.9427 509.793 91.2598 503.185C99.6908 496.576 107.381 488.43 114.331 478.746C121.395 469.062 126.75 457.896 130.396 445.25Z" fill="black"/>
<path d="M131.001 560.414C131.001 549.281 132.661 538.148 135.981 527.016C139.302 515.883 144.136 505.189 150.483 494.936C156.929 484.682 164.741 475.16 173.921 466.371C183.101 457.484 193.55 449.77 205.269 443.227C217.085 436.684 230.024 431.557 244.087 427.846C258.149 424.135 273.237 422.279 289.351 422.279C303.706 422.279 316.89 423.451 328.901 425.795C340.913 428.041 351.704 431.068 361.274 434.877C370.942 438.588 379.39 442.787 386.616 447.475C393.843 452.064 399.8 456.703 404.487 461.391C408.687 449.77 412.935 438.686 417.231 428.139C421.626 417.592 426.411 407.826 431.587 398.842C436.763 389.857 442.524 381.752 448.872 374.525C455.317 367.299 462.69 361.146 470.991 356.068C479.39 350.893 488.911 346.938 499.556 344.203C510.2 341.469 522.358 340.102 536.03 340.102C545.601 340.102 554.097 341.615 561.519 344.643C569.038 347.572 575.386 351.625 580.562 356.801C585.737 361.977 589.644 368.08 592.28 375.111C595.015 382.143 596.382 389.662 596.382 397.67C596.382 405.873 594.917 413.93 591.987 421.84C589.058 429.75 584.517 437.562 578.364 445.277C572.31 452.895 564.595 460.414 555.22 467.836C545.845 475.258 534.663 482.582 521.675 489.809C533.491 490.785 543.745 493.568 552.437 498.158C561.128 502.65 568.306 508.412 573.97 515.443C579.731 522.377 584.028 530.287 586.86 539.174C589.692 548.061 591.108 557.289 591.108 566.859C591.108 575.062 590.181 583.07 588.325 590.883C591.255 589.32 594.331 587.66 597.554 585.902C600.874 584.145 603.95 582.484 606.782 580.922L616.304 575.795C617.769 575.209 618.989 574.916 619.966 574.916C622.31 574.916 623.481 576.088 623.481 578.432C623.481 580.092 622.896 581.605 621.724 582.973C620.649 584.34 619.185 585.658 617.329 586.928C615.571 588.1 613.521 589.32 611.177 590.59C608.931 591.762 606.636 592.982 604.292 594.252C600.874 596.205 597.798 598.061 595.063 599.818C592.329 601.576 589.351 603.334 586.128 605.092C581.831 624.818 575.093 642.348 565.913 657.68C556.733 673.109 545.796 686.098 533.101 696.645C520.405 707.289 506.245 715.346 490.62 720.814C474.995 726.381 458.638 729.164 441.548 729.164C433.735 729.164 425.972 728.48 418.257 727.113C410.64 725.746 403.267 723.842 396.138 721.4C389.009 719.057 382.222 716.273 375.776 713.051C369.331 709.926 363.374 706.557 357.905 702.943C352.534 699.33 347.749 695.619 343.55 691.811C339.351 688.002 335.933 684.291 333.296 680.678C313.472 680.678 294.722 679.799 277.046 678.041C259.37 676.381 243.062 673.646 228.12 669.838C213.179 666.029 199.702 661 187.69 654.75C175.679 648.598 165.474 641.078 157.075 632.191C148.677 623.305 142.231 612.953 137.739 601.137C133.247 589.223 131.001 575.648 131.001 560.414ZM329.341 513.832C329.341 512.562 331.001 511 334.321 509.145C337.642 507.289 342.183 505.385 347.944 503.432C353.706 501.381 360.542 499.33 368.452 497.279C376.362 495.229 384.956 493.324 394.233 491.566L401.265 470.326C396.675 466.127 391.304 462.27 385.151 458.754C378.999 455.238 371.577 452.211 362.886 449.672C354.194 447.133 343.94 445.131 332.124 443.666C320.308 442.201 306.489 441.469 290.669 441.469C274.946 441.469 260.396 442.982 247.017 446.01C233.735 449.037 221.626 453.236 210.688 458.607C199.849 463.881 190.229 470.131 181.831 477.357C173.53 484.584 166.548 492.445 160.884 500.941C155.22 509.34 150.923 518.178 147.993 527.455C145.161 536.732 143.745 546.01 143.745 555.287C143.745 564.076 145.259 572.719 148.286 581.215C151.313 589.711 155.659 597.816 161.323 605.531C166.987 613.148 173.921 620.229 182.124 626.771C190.327 633.314 199.556 638.93 209.81 643.617C220.161 648.402 231.489 652.113 243.794 654.75C256.099 657.484 269.233 658.852 283.198 658.852H284.077C283.882 657.484 283.735 656.166 283.638 654.896C283.54 653.725 283.491 652.553 283.491 651.381C283.491 646.693 284.175 642.689 285.542 639.369C287.007 636.049 288.911 633.314 291.255 631.166C293.599 629.018 296.284 627.455 299.312 626.479C302.339 625.502 305.464 625.014 308.687 625.014C312.788 625.014 316.841 625.648 320.845 626.918C324.946 628.188 328.56 629.994 331.685 632.338C337.642 626.283 343.062 619.398 347.944 611.684C352.827 603.871 357.319 595.473 361.421 586.488C365.62 577.504 369.478 568.08 372.993 558.217C376.606 548.256 380.122 538.051 383.54 527.602C378.56 527.895 373.579 528.09 368.599 528.188C363.716 528.285 358.638 528.334 353.364 528.334C345.942 528.334 340.083 527.162 335.786 524.818C331.489 522.475 329.341 518.812 329.341 513.832ZM346.333 666.469C362.251 665.199 378.511 663.148 395.112 660.316C411.714 657.484 428.608 653.676 445.796 648.891C462.983 644.105 480.513 638.295 498.384 631.459C516.353 624.525 534.663 616.371 553.315 606.996C554.292 602.504 555.22 597.23 556.099 591.176C557.075 585.121 557.563 577.797 557.563 569.203C557.563 564.223 557.271 559.096 556.685 553.822C556.099 548.451 555.024 543.227 553.462 538.148C551.997 533.07 549.995 528.285 547.456 523.793C544.917 519.203 541.646 515.15 537.642 511.635C533.638 508.021 528.853 505.092 523.286 502.846C517.817 500.6 511.372 499.281 503.95 498.891C497.798 501.527 491.792 504.018 485.933 506.361C480.073 508.705 473.97 510.902 467.622 512.953C461.274 515.004 454.536 516.908 447.407 518.666C440.278 520.326 432.319 521.791 423.53 523.061C420.503 536.83 416.89 550.404 412.69 563.783C408.491 577.064 403.267 589.662 397.017 601.576C390.767 613.393 383.296 624.232 374.604 634.096C365.913 643.861 355.659 652.113 343.843 658.852C344.136 660.121 344.478 661.342 344.868 662.514C345.356 663.783 345.845 665.102 346.333 666.469ZM466.597 483.07C476.851 483.07 486.665 483.656 496.04 484.828C522.212 470.375 541.743 455.434 554.634 440.004C567.622 424.477 574.116 408.705 574.116 392.689C574.116 386.83 573.14 381.41 571.187 376.43C569.331 371.449 566.499 367.152 562.69 363.539C558.882 359.926 554.048 357.094 548.188 355.043C542.427 352.992 535.688 351.967 527.974 351.967C515.376 351.967 504.634 353.529 495.747 356.654C486.86 359.779 479.292 364.223 473.042 369.984C466.792 375.648 461.616 382.533 457.515 390.639C453.511 398.646 450.044 407.582 447.114 417.445C444.185 427.309 441.548 437.953 439.204 449.379C436.86 460.805 434.37 472.768 431.733 485.268C435.347 484.975 438.521 484.73 441.255 484.535C443.989 484.242 446.626 483.998 449.165 483.803C451.704 483.51 454.341 483.314 457.075 483.217C459.81 483.119 462.983 483.07 466.597 483.07ZM551.411 621.938C542.72 626.137 533.931 630.482 525.044 634.975C516.255 639.467 507.075 643.861 497.505 648.158C487.935 652.455 477.876 656.508 467.329 660.316C456.88 664.223 445.649 667.641 433.638 670.57C421.724 673.598 408.882 675.99 395.112 677.748C381.44 679.604 366.646 680.629 350.728 680.824C355.122 685.023 360.493 689.32 366.841 693.715C373.286 698.109 380.22 702.113 387.642 705.727C395.161 709.34 403.022 712.27 411.226 714.516C419.429 716.859 427.534 718.031 435.542 718.031C451.753 718.031 466.304 715.492 479.194 710.414C492.085 705.434 503.315 698.549 512.886 689.76C522.554 681.068 530.562 670.863 536.909 659.145C543.354 647.523 548.188 635.121 551.411 621.938ZM428.804 499.33C428.413 501.186 428.071 503.041 427.778 504.896C427.485 506.654 427.046 508.412 426.46 510.17C431.831 509.291 436.567 508.314 440.669 507.24C444.868 506.166 448.823 504.994 452.534 503.725C456.343 502.357 460.054 500.941 463.667 499.477C467.378 497.914 471.528 496.254 476.118 494.496C475.239 494.398 474.458 494.35 473.774 494.35C473.091 494.35 472.31 494.35 471.431 494.35C467.329 494.643 463.618 494.936 460.298 495.229C456.978 495.521 453.706 495.863 450.483 496.254C447.358 496.645 444.038 497.084 440.522 497.572C437.104 498.061 433.198 498.646 428.804 499.33ZM354.097 513.539C358.491 513.93 362.837 514.223 367.134 514.418C371.431 514.516 375.679 514.564 379.878 514.564H386.47C386.86 513.49 387.202 512.465 387.495 511.488C387.788 510.512 388.13 509.535 388.521 508.559C381.489 509.926 375.093 511.098 369.331 512.074C363.667 513.051 358.589 513.539 354.097 513.539Z" fill="black"/>
</svg>
